<svg width="202" height="56" viewBox="0 0 202 56" fill="none" xmlns="http://www.w3.org/2000/svg">
<rect x="8" y="7" width="194" height="49" fill="#7B8F5F"/>
<rect width="194" height="49" fill="#B8C892"/>
<rect x="5.25" y="5.25" width="182.5" height="38.5" fill="#B8C892" stroke="#41352E" stroke-width="0.5" stroke-linejoin="round" stroke-dasharray="4 4"/>
<path d="M48.98 29.2C48.1133 29.2 47.4133 29.04 46.88 28.72C46.36 28.4 46 27.9267 45.8 27.3L46.18 27.16V29H45.1V26.22H46.08C46.1333 26.66 46.2867 27.0333 46.54 27.34C46.8067 27.6467 47.1333 27.8733 47.52 28.02C47.9067 28.1667 48.3133 28.24 48.74 28.24C49.3667 28.24 49.8333 28.1333 50.14 27.92C50.4467 27.6933 50.6 27.3933 50.6 27.02C50.6 26.7533 50.5067 26.5267 50.32 26.34C50.1467 26.1533 49.7733 25.9933 49.2 25.86L47.28 25.38C46.6 25.2067 46.0667 24.9467 45.68 24.6C45.3067 24.2533 45.12 23.7933 45.12 23.22C45.12 22.74 45.24 22.32 45.48 21.96C45.7333 21.6 46.0867 21.3267 46.54 21.14C47.0067 20.94 47.5467 20.84 48.16 20.84C48.8533 20.84 49.4333 20.98 49.9 21.26C50.3667 21.54 50.68 21.96 50.84 22.52L50.48 22.56V21.06H51.58V23.62H50.58C50.5667 23.18 50.4533 22.8267 50.24 22.56C50.0267 22.2933 49.7533 22.1067 49.42 22C49.1 21.88 48.7667 21.82 48.42 21.82C47.7933 21.82 47.3267 21.9333 47.02 22.16C46.7133 22.3733 46.56 22.6667 46.56 23.04C46.56 23.32 46.66 23.5467 46.86 23.72C47.0733 23.88 47.4267 24.02 47.92 24.14L49.84 24.6C50.5733 24.7733 51.1267 25.0333 51.5 25.38C51.8733 25.7267 52.06 26.22 52.06 26.86C52.06 27.34 51.9333 27.76 51.68 28.12C51.4267 28.4667 51.0667 28.7333 50.6 28.92C50.1467 29.1067 49.6067 29.2 48.98 29.2ZM53.2877 29V27.88H54.6677V22.18H53.1877V21.06H56.1477V27.88H57.4277V29H53.2877ZM55.4077 19.58C55.0743 19.58 54.8143 19.4867 54.6277 19.3C54.4543 19.1 54.3677 18.86 54.3677 18.58C54.3677 18.2867 54.4543 18.0467 54.6277 17.86C54.8143 17.66 55.0743 17.56 55.4077 17.56C55.7277 17.56 55.9743 17.66 56.1477 17.86C56.3343 18.0467 56.4277 18.2867 56.4277 18.58C56.4277 18.86 56.3343 19.1 56.1477 19.3C55.9743 19.4867 55.7277 19.58 55.4077 19.58ZM63.0853 32.62C62.512 32.62 61.932 32.5533 61.3453 32.42C60.7586 32.2867 60.2453 32.0933 59.8053 31.84L60.3453 30.64C60.772 30.8933 61.2053 31.08 61.6453 31.2C62.0986 31.32 62.552 31.38 63.0053 31.38C63.832 31.38 64.4386 31.1733 64.8253 30.76C65.2253 30.3467 65.4253 29.76 65.4253 29V27.54L65.7053 27.32C65.3853 27.7867 64.952 28.1533 64.4053 28.42C63.8586 28.6733 63.2653 28.8 62.6253 28.8C61.7853 28.8 61.072 28.62 60.4853 28.26C59.8986 27.8867 59.4586 27.4 59.1653 26.8C58.872 26.2 58.7253 25.5467 58.7253 24.84C58.7253 24.12 58.872 23.46 59.1653 22.86C59.4586 22.26 59.8986 21.78 60.4853 21.42C61.072 21.0467 61.7853 20.86 62.6253 20.86C63.2653 20.86 63.8586 20.9933 64.4053 21.26C64.952 21.5133 65.3853 21.8733 65.7053 22.34L65.5253 22.38V21.06H68.2053V22.18H66.9253V28.88C66.9253 29.6933 66.772 30.3733 66.4653 30.92C66.172 31.48 65.7386 31.9 65.1653 32.18C64.6053 32.4733 63.912 32.62 63.0853 32.62ZM62.8853 27.56C63.4186 27.56 63.912 27.4667 64.3653 27.28C64.832 27.0933 65.2253 26.8133 65.5453 26.44L65.4453 27.02V22.7L65.5453 23.24C65.2253 22.8533 64.832 22.5667 64.3653 22.38C63.912 22.1933 63.4186 22.1 62.8853 22.1C62.0853 22.1 61.432 22.34 60.9253 22.82C60.4186 23.2867 60.1653 23.96 60.1653 24.84C60.1653 25.6933 60.4186 26.36 60.9253 26.84C61.432 27.32 62.0853 27.56 62.8853 27.56ZM69.147 29V27.88H70.527V22.18H69.047V21.06H71.927V22.22L71.667 22.3C72.1737 21.82 72.7204 21.46 73.307 21.22C73.8937 20.98 74.4737 20.86 75.047 20.86C75.9137 20.86 76.5737 21.08 77.027 21.52C77.4937 21.96 77.727 22.64 77.727 23.56V27.88H79.007V29H74.867V27.88H76.247V23.84C76.247 23.24 76.107 22.8067 75.827 22.54C75.5604 22.26 75.127 22.12 74.527 22.12C74.087 22.12 73.6404 22.2 73.187 22.36C72.747 22.52 72.267 22.82 71.747 23.26L72.007 22.7V27.88H73.287V29H69.147ZM85.4947 29V27.88H86.8747V22.18H85.3947V21.06H88.2747V22.22L88.0147 22.3C88.5214 21.82 89.0547 21.46 89.6147 21.22C90.188 20.98 90.7547 20.86 91.3147 20.86C92.048 20.86 92.6014 21 92.9747 21.28C93.348 21.56 93.6147 21.92 93.7747 22.36L93.5747 22.28C94.068 21.8 94.6014 21.4467 95.1747 21.22C95.748 20.98 96.308 20.86 96.8547 20.86C97.7214 20.86 98.3747 21.08 98.8147 21.52C99.268 21.96 99.4947 22.64 99.4947 23.56V27.88H100.775V29H96.6747V27.88H98.0147V23.84C98.0147 23.24 97.8814 22.8067 97.6147 22.54C97.3614 22.26 96.9414 22.12 96.3547 22.12C95.9414 22.12 95.508 22.2 95.0547 22.36C94.6147 22.52 94.148 22.82 93.6547 23.26L93.8147 22.56C93.868 22.7333 93.9014 22.92 93.9147 23.12C93.928 23.32 93.9347 23.4667 93.9347 23.56V27.88H95.1947V29H91.1147V27.88H92.4747V23.84C92.4747 23.24 92.3414 22.8067 92.0747 22.54C91.808 22.26 91.388 22.12 90.8147 22.12C90.388 22.12 89.948 22.2 89.4947 22.36C89.0547 22.52 88.588 22.82 88.0947 23.26L88.3547 22.78V27.88H89.6147V29H85.4947ZM106.469 29.2C105.469 29.2 104.623 29.02 103.929 28.66C103.249 28.2867 102.736 27.7867 102.389 27.16C102.056 26.52 101.889 25.8133 101.889 25.04C101.889 24.2533 102.056 23.5467 102.389 22.92C102.736 22.2933 103.223 21.7933 103.849 21.42C104.476 21.0467 105.216 20.86 106.069 20.86C106.923 20.86 107.656 21.0467 108.269 21.42C108.883 21.7933 109.349 22.2933 109.669 22.92C110.003 23.5333 110.169 24.24 110.169 25.04V25.62H102.769V24.46H108.769C108.769 24.02 108.656 23.6133 108.429 23.24C108.216 22.8667 107.903 22.5667 107.489 22.34C107.089 22.1 106.616 21.98 106.069 21.98C105.496 21.98 105.003 22.1067 104.589 22.36C104.176 22.6 103.856 22.9267 103.629 23.34C103.416 23.74 103.309 24.1733 103.309 24.64V25.04C103.309 25.9333 103.576 26.6467 104.109 27.18C104.656 27.7133 105.456 27.98 106.509 27.98C107.069 27.98 107.609 27.88 108.129 27.68C108.663 27.48 109.103 27.2133 109.449 26.88L110.089 27.94C109.649 28.3267 109.109 28.6333 108.469 28.86C107.829 29.0867 107.163 29.2 106.469 29.2ZM120.976 29.2C120.136 29.2 119.476 28.98 118.996 28.54C118.516 28.1 118.276 27.42 118.276 26.5V22.18H116.796V21.06H119.736V26.22C119.736 26.82 119.87 27.26 120.136 27.54C120.416 27.8067 120.863 27.94 121.476 27.94C121.903 27.94 122.343 27.86 122.796 27.7C123.263 27.5267 123.75 27.22 124.256 26.78L123.856 27.36V22.18H122.476V21.06H125.336V27.88H126.616V29H123.956V27.84L124.336 27.78C123.843 28.26 123.296 28.62 122.696 28.86C122.11 29.0867 121.536 29.2 120.976 29.2ZM127.364 21.06H130.224V22.36L130.064 22.42C130.371 21.9133 130.791 21.5267 131.324 21.26C131.857 20.9933 132.431 20.86 133.044 20.86C133.884 20.86 134.584 21.0533 135.144 21.44C135.704 21.8267 136.124 22.3333 136.404 22.96C136.697 23.5867 136.844 24.2733 136.844 25.02C136.844 25.78 136.697 26.4733 136.404 27.1C136.124 27.7267 135.704 28.2333 135.144 28.62C134.584 29.0067 133.884 29.2 133.044 29.2C132.431 29.2 131.857 29.0667 131.324 28.8C130.791 28.52 130.371 28.1333 130.064 27.64L130.324 27.7V31.3H131.604V32.42H127.464V31.3H128.844V22.18H127.364V21.06ZM132.784 27.96C133.557 27.96 134.184 27.7067 134.664 27.2C135.157 26.68 135.404 25.9533 135.404 25.02C135.404 24.1 135.157 23.3867 134.664 22.88C134.184 22.36 133.557 22.1 132.784 22.1C132.277 22.1 131.797 22.2 131.344 22.4C130.904 22.5867 130.531 22.8933 130.224 23.32L130.324 22.7V27.4L130.224 26.76C130.531 27.16 130.904 27.46 131.344 27.66C131.797 27.86 132.277 27.96 132.784 27.96ZM138.973 26.02L138.513 21.34V17.34H140.153V21.34L139.693 26.02H138.973ZM138.553 29V27.48H140.133V29H138.553Z" fill="#41352E"/>
</svg>
