<svg width="202" height="56" viewBox="0 0 202 56" fill="none" xmlns="http://www.w3.org/2000/svg">
<rect x="8" y="7" width="194" height="49" rx="5" fill="#7B8F5F"/>
<rect width="194" height="49" rx="5" fill="#C1CFA1"/>
<rect x="5.25" y="5.25" width="182.5" height="38.5" rx="4.75" fill="#C1CFA1" stroke="#41352E" stroke-width="0.5" stroke-linejoin="round" stroke-dasharray="4 4"/>
<path d="M47.3854 29.22C46.3294 29.22 45.5448 29.0513 45.0314 28.714C44.5181 28.3767 44.1734 27.944 43.9974 27.416L44.4814 27.24V29H42.6114V26.008H44.2614C44.3788 26.3453 44.5621 26.6387 44.8114 26.888C45.0608 27.1227 45.3614 27.306 45.7134 27.438C46.0654 27.5553 46.4321 27.614 46.8134 27.614C47.3121 27.614 47.6788 27.5333 47.9134 27.372C48.1628 27.2107 48.2874 27.0053 48.2874 26.756C48.2874 26.58 48.2141 26.426 48.0674 26.294C47.9208 26.1473 47.6201 26.0153 47.1654 25.898L45.1854 25.414C44.3934 25.194 43.7628 24.8787 43.2934 24.468C42.8241 24.0573 42.5894 23.4853 42.5894 22.752C42.5894 22.1653 42.7361 21.6667 43.0294 21.256C43.3374 20.8307 43.7554 20.508 44.2834 20.288C44.8261 20.068 45.4274 19.958 46.0874 19.958C46.9234 19.958 47.5688 20.1193 48.0234 20.442C48.4928 20.75 48.8008 21.1533 48.9474 21.652L48.4854 21.674V20.2H50.3554V22.972H48.7054C48.6468 22.664 48.5221 22.4073 48.3314 22.202C48.1408 21.9967 47.8988 21.8427 47.6054 21.74C47.3121 21.6227 47.0114 21.564 46.7034 21.564C46.2341 21.564 45.8674 21.6447 45.6034 21.806C45.3541 21.9673 45.2294 22.18 45.2294 22.444C45.2294 22.6493 45.3101 22.818 45.4714 22.95C45.6474 23.0673 45.9334 23.1773 46.3294 23.28L48.3094 23.764C49.1454 23.9547 49.7908 24.2627 50.2454 24.688C50.7001 25.0987 50.9274 25.6927 50.9274 26.47C50.9274 27.0567 50.7734 27.5553 50.4654 27.966C50.1721 28.362 49.7541 28.67 49.2114 28.89C48.6834 29.11 48.0748 29.22 47.3854 29.22ZM52.0113 29V27.108H53.2873V22.092H51.9013V20.2H55.9273V27.108H57.0933V29H52.0113ZM54.6073 18.968C54.094 18.968 53.6906 18.8213 53.3973 18.528C53.1186 18.2347 52.9793 17.8533 52.9793 17.384C52.9793 16.9 53.1186 16.5113 53.3973 16.218C53.6906 15.91 54.094 15.756 54.6073 15.756C55.106 15.756 55.4946 15.91 55.7733 16.218C56.0666 16.5113 56.2133 16.9 56.2133 17.384C56.2133 17.8533 56.0666 18.2347 55.7733 18.528C55.4946 18.8213 55.106 18.968 54.6073 18.968ZM63.2409 32.982C62.4636 32.982 61.7302 32.8867 61.0409 32.696C60.3516 32.52 59.7796 32.2853 59.3249 31.992L60.2709 30.012C60.6816 30.2613 61.1142 30.4593 61.5689 30.606C62.0382 30.7527 62.5149 30.826 62.9989 30.826C63.7762 30.826 64.3482 30.6207 64.7149 30.21C65.0962 29.814 65.2869 29.2713 65.2869 28.582V27.482L65.6389 27.196C65.3016 27.724 64.8469 28.12 64.2749 28.384C63.7029 28.648 63.0942 28.78 62.4489 28.78C61.5542 28.78 60.7916 28.582 60.1609 28.186C59.5302 27.7753 59.0536 27.2327 58.7309 26.558C58.4082 25.8833 58.2469 25.15 58.2469 24.358C58.2469 23.5807 58.4082 22.862 58.7309 22.202C59.0536 21.5273 59.5302 20.992 60.1609 20.596C60.7916 20.1853 61.5542 19.98 62.4489 19.98C63.0942 19.98 63.7029 20.112 64.2749 20.376C64.8469 20.64 65.3016 21.036 65.6389 21.564L65.5069 21.718V20.2H69.1369V22.092H67.9709V28.428C67.9709 29.396 67.7729 30.2173 67.3769 30.892C66.9956 31.5667 66.4529 32.08 65.7489 32.432C65.0449 32.7987 64.2089 32.982 63.2409 32.982ZM63.1529 26.624C63.5636 26.624 63.9669 26.5507 64.3629 26.404C64.7589 26.2573 65.1182 26.008 65.4409 25.656L65.3089 26.514V22.29L65.4409 23.104C65.1182 22.752 64.7589 22.5027 64.3629 22.356C63.9669 22.2093 63.5636 22.136 63.1529 22.136C62.5076 22.136 61.9576 22.3267 61.5029 22.708C61.0629 23.0893 60.8429 23.6393 60.8429 24.358C60.8429 25.0767 61.0629 25.634 61.5029 26.03C61.9576 26.426 62.5076 26.624 63.1529 26.624ZM70.0367 29V27.108H71.3127V22.092H69.9267V20.2H73.7547V21.586L73.4687 21.63C74.026 21.058 74.6273 20.64 75.2727 20.376C75.9327 20.112 76.6 19.98 77.2747 19.98C78.184 19.98 78.9027 20.2293 79.4307 20.728C79.9733 21.2267 80.2447 21.9967 80.2447 23.038V27.108H81.4107V29H76.3287V27.108H77.6047V23.72C77.6047 23.1627 77.48 22.7667 77.2307 22.532C76.996 22.2827 76.622 22.158 76.1087 22.158C75.7127 22.158 75.3093 22.2387 74.8987 22.4C74.5027 22.5467 74.1067 22.8033 73.7107 23.17L73.9527 22.444V27.108H75.1407V29H70.0367ZM88.7925 29V27.108H90.0685V22.092H88.6825V20.2H92.5105V21.586L92.2245 21.63C92.7819 21.058 93.3759 20.64 94.0065 20.376C94.6519 20.112 95.2972 19.98 95.9425 19.98C96.7199 19.98 97.3285 20.1413 97.7685 20.464C98.2085 20.772 98.5239 21.2047 98.7145 21.762L98.3405 21.608C98.8979 21.036 99.4919 20.6253 100.123 20.376C100.768 20.112 101.413 19.98 102.059 19.98C102.968 19.98 103.687 20.2293 104.215 20.728C104.743 21.2267 105.007 21.9967 105.007 23.038V27.108H106.173V29H101.135V27.108H102.345V23.72C102.345 23.1627 102.227 22.7667 101.993 22.532C101.773 22.2827 101.413 22.158 100.915 22.158C100.548 22.158 100.167 22.2387 99.7705 22.4C99.3745 22.5467 98.9932 22.8033 98.6265 23.17L98.7585 22.048C98.7879 22.2093 98.8099 22.3927 98.8245 22.598C98.8392 22.8033 98.8465 22.95 98.8465 23.038V27.108H99.9465V29H95.0185V27.108H96.2285V23.72C96.2285 23.1627 96.1112 22.7667 95.8765 22.532C95.6565 22.2827 95.2972 22.158 94.7985 22.158C94.4172 22.158 94.0285 22.2387 93.6325 22.4C93.2365 22.5467 92.8479 22.8033 92.4665 23.17L92.7085 22.488V27.108H93.8085V29H88.7925ZM112.447 29.22C111.318 29.22 110.357 29.022 109.565 28.626C108.773 28.2153 108.172 27.658 107.761 26.954C107.365 26.25 107.167 25.458 107.167 24.578C107.167 23.7127 107.358 22.9353 107.739 22.246C108.135 21.5567 108.685 21.0067 109.389 20.596C110.108 20.1853 110.951 19.98 111.919 19.98C112.872 19.98 113.694 20.1853 114.383 20.596C115.087 21.0067 115.63 21.5567 116.011 22.246C116.392 22.9353 116.583 23.7127 116.583 24.578V25.458H108.597V23.72H114.053C114.053 23.412 113.965 23.1113 113.789 22.818C113.613 22.5247 113.364 22.2827 113.041 22.092C112.733 21.9013 112.344 21.806 111.875 21.806C111.42 21.806 111.032 21.9087 110.709 22.114C110.386 22.3047 110.137 22.5613 109.961 22.884C109.8 23.192 109.719 23.5293 109.719 23.896V24.578C109.719 25.3553 109.954 25.9713 110.423 26.426C110.907 26.866 111.633 27.086 112.601 27.086C113.173 27.086 113.716 26.998 114.229 26.822C114.742 26.646 115.175 26.404 115.527 26.096L116.539 27.9C116.07 28.296 115.468 28.6187 114.735 28.868C114.016 29.1027 113.254 29.22 112.447 29.22ZM128.354 29.22C127.489 29.22 126.77 28.9707 126.198 28.472C125.641 27.9587 125.362 27.1887 125.362 26.162V22.092H123.976V20.2H128.024V25.48C128.024 26.0373 128.142 26.4407 128.376 26.69C128.611 26.9247 128.985 27.042 129.498 27.042C129.894 27.042 130.298 26.9613 130.708 26.8C131.119 26.624 131.515 26.3527 131.896 25.986L131.5 26.734V22.092H130.224V20.2H134.14V27.108H135.306V29H131.698V27.614L132.16 27.57C131.603 28.142 130.994 28.56 130.334 28.824C129.689 29.088 129.029 29.22 128.354 29.22ZM136.052 20.2H139.88V21.696L139.77 21.652C140.093 21.0947 140.533 20.6767 141.09 20.398C141.662 20.1193 142.249 19.98 142.85 19.98C143.745 19.98 144.493 20.1927 145.094 20.618C145.696 21.0433 146.15 21.608 146.458 22.312C146.781 23.0013 146.942 23.7567 146.942 24.578C146.942 25.414 146.781 26.184 146.458 26.888C146.15 27.592 145.696 28.1567 145.094 28.582C144.493 29.0073 143.745 29.22 142.85 29.22C142.249 29.22 141.662 29.0807 141.09 28.802C140.533 28.5233 140.093 28.1053 139.77 27.548L140.1 27.504V30.87H141.244V32.762H136.14V30.87H137.438V22.092H136.052V20.2ZM142.146 27.064C142.762 27.064 143.283 26.8513 143.708 26.426C144.134 25.986 144.346 25.37 144.346 24.578C144.346 23.8007 144.134 23.1993 143.708 22.774C143.283 22.3487 142.762 22.136 142.146 22.136C141.765 22.136 141.384 22.2167 141.002 22.378C140.621 22.5247 140.276 22.796 139.968 23.192L140.1 22.246V26.976L139.968 26.008C140.276 26.3893 140.621 26.6607 141.002 26.822C141.384 26.9833 141.765 27.064 142.146 27.064ZM149.322 25.348L148.42 20.574V16.174H151.434V20.574L150.554 25.348H149.322ZM148.728 29V26.712H151.148V29H148.728Z" fill="#41352E"/>
</svg>
